<svg class="svg" width="16" height="16" viewBox="0 0 16 16" xmlns="http://www.w3.org/2000/svg"><path d="M2 8c0 3.314 2.686 6 6 6 .61 0 1.175-.112 1.633-.418.485-.323.728-.78.837-1.215.101-.403.092-.81.075-1.11-.008-.15-.017-.266-.025-.367-.011-.147-.02-.26-.02-.39 0-.596.528-1.048 1-1.048.854 0 1.524-.412 1.945-1.016.398-.57.555-1.275.555-1.936 0-1.41-.796-2.563-1.896-3.323C11.007 2.42 9.55 2 8 2 4.686 2 2 4.686 2 8zm6 5c-2.761 0-5-2.239-5-5 0-2.761 2.239-5 5-5 2.761 0 5 1.5 5 3.5 0 1.034-.5 1.952-1.5 1.952-1 0-2 .876-2 2.048 0 .162.013.338.027.518C9.597 11.948 9.675 13 8 13zm0-7c.552 0 1-.448 1-1 0-.552-.448-1-1-1-.552 0-1 .448-1 1 0 .552.448 1 1 1zm4 0c0 .552-.448 1-1 1-.552 0-1-.448-1-1 0-.552.448-1 1-1 .552 0 1 .448 1 1zM5.5 8c.552 0 1-.448 1-1 0-.552-.448-1-1-1-.552 0-1 .448-1 1 0 .552.448 1 1 1z" fill-rule="evenodd" fill-opacity=".5" fill="#8638E5" stroke="none"></path></svg>