<svg class="svg" width="16" height="16" viewBox="0 0 16 16" xmlns="http://www.w3.org/2000/svg"><path d="M6.276 3.002c.275.025.473.267.443.542l-.213 1.913h3.438l.223-2.003c.03-.274.278-.477.553-.452.275.025.473.267.443.542l-.213 1.913h1.55c.276 0 .5.224.5.5 0 .276-.224.5-.5.5h-1.66l-.334 3H12.5c.276 0 .5.224.5.5 0 .276-.224.5-.5.5h-2.105l-.233 2.093c-.03.274-.278.477-.553.452-.275-.025-.473-.267-.443-.542l.223-2.003H5.95l-.232 2.093c-.03.274-.278.477-.553.452-.275-.025-.474-.267-.443-.542l.222-2.003H3.5c-.276 0-.5-.224-.5-.5 0-.276.224-.5.5-.5h1.556l.333-3H3.5c-.276 0-.5-.224-.5-.5 0-.276.224-.5.5-.5h2l.223-2.003c.03-.274.278-.477.553-.452zM9.5 9.457l.333-3H6.395l-.334 3H9.5z" fill-rule="evenodd" fill-opacity=".5" fill="#8638E5" stroke="none"></path></svg>