<svg width="24" height="24" viewBox="0 0 24 24" fill="none" xmlns="http://www.w3.org/2000/svg">
<path fill-rule="evenodd" clip-rule="evenodd" d="M21.9146 8.53148L20.1525 10.734C20.1404 10.6558 20.1271 10.5778 20.1127 10.5C19.8854 9.27096 19.3806 8.10283 18.6286 7.08808C17.5755 5.66695 16.0935 4.62191 14.4013 4.10713C12.709 3.59234 10.8961 3.63506 9.23001 4.22899C8.04035 4.65308 6.97049 5.34217 6.09731 6.23645C5.74761 6.5946 5.42946 6.98565 5.14779 7.40578L5.148 7.40592L6.39368 8.24109L6.39389 8.24123C7.19978 7.03924 8.37064 6.12807 9.73377 5.64215C11.0969 5.15622 12.5801 5.12127 13.9646 5.54244C15.3491 5.96361 16.5616 6.81861 17.4232 7.98131C18.1503 8.96253 18.5951 10.119 18.7162 11.326L15.4162 9.12596L14.5842 10.374L19.0842 13.374L19.6563 13.7555L20.0859 13.2185L23.0859 9.46852L21.9146 8.53148ZM3.91455 10.7815L0.914551 14.5315L2.08585 15.4685L3.8479 13.266C3.86005 13.3442 3.87332 13.4222 3.8877 13.5C4.11496 14.729 4.61984 15.8972 5.37181 16.9119C6.42493 18.333 7.90691 19.3781 9.59915 19.8929C11.2914 20.4077 13.1043 20.3649 14.7704 19.771C15.9601 19.3469 17.0299 18.6578 17.9031 17.7635C18.2528 17.4054 18.5709 17.0143 18.8526 16.5942L18.8524 16.5941L17.6067 15.7589L17.6065 15.7588C16.8006 16.9608 15.6298 17.8719 14.2666 18.3579C12.9035 18.8438 11.4203 18.8787 10.0358 18.4576C8.65128 18.0364 7.43879 17.1814 6.57718 16.0187C5.85006 15.0375 5.40531 13.881 5.28419 12.674L8.58418 14.874L9.41623 13.626L4.91623 10.626L4.3441 10.2445L3.91455 10.7815Z" fill="white"/>
</svg>
